<svg width="400" height="250" viewBox="0 0 400 250" xmlns="http://www.w3.org/2000/svg">
  <!-- Background -->
  <rect width="400" height="250" fill="#f8fafc"/>
  
  <!-- Header -->
  <rect x="0" y="0" width="400" height="50" fill="#1e293b"/>
  
  <!-- Logo/Brand -->
  <circle cx="30" cy="25" r="12" fill="#3b82f6"/>
  <text x="30" y="30" fill="white" font-family="Arial, sans-serif" font-size="14" text-anchor="middle" font-weight="bold">S</text>
  
  <!-- Search Bar -->
  <rect x="120" y="15" width="200" height="20" fill="#334155" rx="10"/>
  <circle cx="135" cy="25" r="6" fill="none" stroke="#64748b" stroke-width="1.5"/>
  <line x1="140" y1="30" x2="143" y2="33" stroke="#64748b" stroke-width="1.5"/>
  <text x="155" y="28" fill="#64748b" font-family="Arial, sans-serif" font-size="10">Search...</text>
  
  <!-- Profile Icon -->
  <circle cx="360" cy="25" r="15" fill="#6366f1"/>
  <circle cx="360" cy="20" r="5" fill="white"/>
  <path d="M350,32 Q360,28 370,32" stroke="white" stroke-width="2" fill="none"/>
  
  <!-- Sidebar -->
  <rect x="0" y="50" width="80" height="200" fill="#e2e8f0"/>
  
  <!-- Sidebar Items -->
  <g transform="translate(15, 70)">
    <rect x="0" y="0" width="50" height="25" fill="#3b82f6" rx="5"/>
    <text x="25" y="16" fill="white" font-family="Arial, sans-serif" font-size="10" text-anchor="middle">Home</text>
  </g>
  
  <g transform="translate(15, 105)">
    <rect x="0" y="0" width="50" height="25" fill="transparent" rx="5"/>
    <text x="25" y="16" fill="#475569" font-family="Arial, sans-serif" font-size="10" text-anchor="middle">Profile</text>
  </g>
  
  <g transform="translate(15, 140)">
    <rect x="0" y="0" width="50" height="25" fill="transparent" rx="5"/>
    <text x="25" y="16" fill="#475569" font-family="Arial, sans-serif" font-size="10" text-anchor="middle">Messages</text>
  </g>
  
  <!-- Main Content Area -->
  <rect x="80" y="50" width="320" height="200" fill="white"/>
  
  <!-- Post 1 -->
  <g transform="translate(100, 70)">
    <rect x="0" y="0" width="280" height="80" fill="white" stroke="#e2e8f0" stroke-width="1" rx="8"/>
    
    <!-- User Avatar -->
    <circle cx="20" cy="20" r="12" fill="#f59e0b"/>
    <text x="20" y="25" fill="white" font-family="Arial, sans-serif" font-size="10" text-anchor="middle" font-weight="bold">J</text>
    
    <!-- User Info -->
    <text x="40" y="18" fill="#1e293b" font-family="Arial, sans-serif" font-size="12" font-weight="bold">John Doe</text>
    <text x="40" y="30" fill="#64748b" font-family="Arial, sans-serif" font-size="9">2 hours ago</text>
    
    <!-- Post Content -->
    <text x="20" y="50" fill="#374151" font-family="Arial, sans-serif" font-size="11">Just finished an amazing project! 🚀</text>
    
    <!-- Interaction Buttons -->
    <g transform="translate(20, 60)">
      <!-- Like -->
      <circle cx="10" cy="0" r="8" fill="none" stroke="#64748b" stroke-width="1"/>
      <path d="M6,-2 Q10,-6 14,-2 Q10,2 6,-2" fill="#ef4444"/>
      <text x="25" y="3" fill="#64748b" font-family="Arial, sans-serif" font-size="9">24</text>
      
      <!-- Comment -->
      <circle cx="70" cy="0" r="8" fill="none" stroke="#64748b" stroke-width="1"/>
      <rect x="66" y="-3" width="8" height="6" fill="none" stroke="#64748b" stroke-width="1" rx="2"/>
      <text x="85" y="3" fill="#64748b" font-family="Arial, sans-serif" font-size="9">8</text>
      
      <!-- Share -->
      <circle cx="130" cy="0" r="8" fill="none" stroke="#64748b" stroke-width="1"/>
      <path d="M126,-2 L134,2 M130,-4 L134,2 L130,6" stroke="#64748b" stroke-width="1" fill="none"/>
      <text x="145" y="3" fill="#64748b" font-family="Arial, sans-serif" font-size="9">3</text>
    </g>
  </g>
  
  <!-- Post 2 -->
  <g transform="translate(100, 160)">
    <rect x="0" y="0" width="280" height="80" fill="white" stroke="#e2e8f0" stroke-width="1" rx="8"/>
    
    <!-- User Avatar -->
    <circle cx="20" cy="20" r="12" fill="#10b981"/>
    <text x="20" y="25" fill="white" font-family="Arial, sans-serif" font-size="10" text-anchor="middle" font-weight="bold">A</text>
    
    <!-- User Info -->
    <text x="40" y="18" fill="#1e293b" font-family="Arial, sans-serif" font-size="12" font-weight="bold">Alice Smith</text>
    <text x="40" y="30" fill="#64748b" font-family="Arial, sans-serif" font-size="9">5 hours ago</text>
    
    <!-- Post Content -->
    <text x="20" y="50" fill="#374151" font-family="Arial, sans-serif" font-size="11">Beautiful sunset today! 🌅 #photography</text>
    
    <!-- Image Placeholder -->
    <rect x="20" y="55" width="240" height="15" fill="#f1f5f9" stroke="#e2e8f0" stroke-width="1" rx="3"/>
    <text x="140" y="65" fill="#94a3b8" font-family="Arial, sans-serif" font-size="8" text-anchor="middle">📷 Image</text>
  </g>
  
  <!-- Online Status Indicator -->
  <circle cx="390" cy="60" r="4" fill="#10b981"/>
  <text x="375" y="75" fill="#64748b" font-family="Arial, sans-serif" font-size="8">Online</text>
  
  <!-- Notification Badge -->
  <circle cx="375" cy="25" r="6" fill="#ef4444"/>
  <text x="375" y="28" fill="white" font-family="Arial, sans-serif" font-size="8" text-anchor="middle">3</text>
</svg>